<svg width="303" height="221" viewBox="0 0 303 221" fill="none" xmlns="http://www.w3.org/2000/svg">
<g filter="url(#filter0_i_7_87)">
<rect width="303" height="221" rx="29" fill="#74CFE9"/>
</g>
<path d="M32.9247 57.072V61.328C31.5434 62.056 30.0034 62.42 28.3047 62.42C25.5794 62.42 23.302 61.552 21.4727 59.816C19.4754 57.8933 18.4767 55.5133 18.4767 52.676C18.4767 49.652 19.4754 47.216 21.4727 45.368C23.2274 43.7253 25.514 42.904 28.3327 42.904C29.9754 42.904 31.506 43.2867 32.9247 44.052V48.308C31.7114 46.908 30.2087 46.208 28.4167 46.208C26.5874 46.208 25.094 46.852 23.9367 48.14C22.798 49.4093 22.2287 50.94 22.2287 52.732C22.2287 54.692 22.8634 56.2507 24.1327 57.408C25.402 58.5467 26.8767 59.116 28.5567 59.116C30.3114 59.116 31.7674 58.4347 32.9247 57.072ZM44.3911 58.108L47.5271 58.612C47.3965 58.948 47.2191 59.284 46.9951 59.62C46.7898 59.9373 46.4631 60.3387 46.0151 60.824C45.5671 61.2907 44.9605 61.6733 44.1951 61.972C43.4298 62.252 42.5525 62.392 41.5631 62.392C39.6591 62.392 38.1098 61.8227 36.9151 60.684C35.6458 59.4893 35.0111 57.912 35.0111 55.952C35.0111 54.0107 35.6271 52.424 36.8591 51.192C38.0165 50.0533 39.5378 49.484 41.4231 49.484C43.4765 49.484 45.0538 50.1467 46.1551 51.472C47.1258 52.6293 47.6111 54.216 47.6111 56.232V56.512H38.5391C38.5391 57.3333 38.7351 58.0147 39.1271 58.556C39.6871 59.3213 40.4991 59.704 41.5631 59.704C42.8325 59.704 43.7751 59.172 44.3911 58.108ZM38.6511 54.328H44.3911C44.2605 53.544 43.9151 52.9467 43.3551 52.536C42.8138 52.1067 42.1978 51.892 41.5071 51.892C40.8351 51.892 40.2191 52.1067 39.6591 52.536C39.1178 52.9653 38.7818 53.5627 38.6511 54.328ZM48.828 62L51.04 49.876H53.56L56.892 56.848L60.224 49.876H62.744L64.956 62H61.54L60.532 55.42L57.508 62H56.276L53.252 55.42L52.244 62H48.828ZM75.5291 58.108L78.6651 58.612C78.5344 58.948 78.3571 59.284 78.1331 59.62C77.9278 59.9373 77.6011 60.3387 77.1531 60.824C76.7051 61.2907 76.0984 61.6733 75.3331 61.972C74.5678 62.252 73.6904 62.392 72.7011 62.392C70.7971 62.392 69.2478 61.8227 68.0531 60.684C66.7838 59.4893 66.1491 57.912 66.1491 55.952C66.1491 54.0107 66.7651 52.424 67.9971 51.192C69.1544 50.0533 70.6758 49.484 72.5611 49.484C74.6144 49.484 76.1918 50.1467 77.2931 51.472C78.2638 52.6293 78.7491 54.216 78.7491 56.232V56.512H69.6771C69.6771 57.3333 69.8731 58.0147 70.2651 58.556C70.8251 59.3213 71.6371 59.704 72.7011 59.704C73.9704 59.704 74.9131 59.172 75.5291 58.108ZM69.7891 54.328H75.5291C75.3984 53.544 75.0531 52.9467 74.4931 52.536C73.9518 52.1067 73.3358 51.892 72.6451 51.892C71.9731 51.892 71.3571 52.1067 70.7971 52.536C70.2558 52.9653 69.9198 53.5627 69.7891 54.328ZM81.254 49.876H84.67V57.352L90.27 49.876H93.686V62H90.27V54.524L84.67 62H81.254V49.876ZM89.822 43.8L92.062 44.864C91.6887 45.9093 91.0633 46.656 90.186 47.104C89.3087 47.5333 88.4033 47.748 87.47 47.748C86.5367 47.748 85.6313 47.5333 84.754 47.104C83.8767 46.656 83.2513 45.9093 82.878 44.864L85.118 43.8C85.23 44.304 85.5007 44.724 85.93 45.06C86.378 45.396 86.8913 45.564 87.47 45.564C88.0113 45.564 88.506 45.4147 88.954 45.116C89.402 44.8173 89.6913 44.3787 89.822 43.8ZM96.782 62V49.876H100.198V54.16H104.958V49.876H108.374V62H104.958V57.072H100.198V62H96.782ZM120.786 51.444V49.876H124.202V62H120.786V60.432C119.871 61.7387 118.63 62.392 117.062 62.392C115.232 62.392 113.739 61.7667 112.582 60.516C111.443 59.2653 110.874 57.7347 110.874 55.924C110.874 54.0947 111.434 52.564 112.554 51.332C113.674 50.1 115.12 49.484 116.894 49.484C118.648 49.484 119.946 50.1373 120.786 51.444ZM120.17 53.488C119.535 52.8347 118.732 52.508 117.762 52.508C116.791 52.508 115.988 52.8347 115.354 53.488C114.719 54.1413 114.402 54.9533 114.402 55.924C114.402 56.8947 114.719 57.716 115.354 58.388C115.988 59.0413 116.791 59.368 117.762 59.368C118.732 59.368 119.535 59.0413 120.17 58.388C120.804 57.716 121.122 56.8947 121.122 55.924C121.122 54.9533 120.804 54.1413 120.17 53.488ZM126.254 62L129.838 57.464C129.054 57.352 128.401 57.0347 127.878 56.512C127.244 55.8773 126.926 55.0187 126.926 53.936C126.926 52.6853 127.412 51.668 128.382 50.884C129.241 50.212 130.492 49.876 132.134 49.876H136.95V62H133.534V57.744H133.142L130.174 62H126.254ZM133.534 55.28V52.564H132.05C131.528 52.564 131.145 52.676 130.902 52.9C130.604 53.18 130.454 53.5347 130.454 53.964C130.454 54.412 130.604 54.748 130.902 54.972C131.164 55.1773 131.546 55.28 132.05 55.28H133.534ZM155.748 51.444V49.876H159.164V62H155.748V60.432C154.834 61.7387 153.592 62.392 152.024 62.392C150.195 62.392 148.702 61.7667 147.544 60.516C146.406 59.2653 145.836 57.7347 145.836 55.924C145.836 54.0947 146.396 52.564 147.516 51.332C148.636 50.1 150.083 49.484 151.856 49.484C153.611 49.484 154.908 50.1373 155.748 51.444ZM155.132 53.488C154.498 52.8347 153.695 52.508 152.724 52.508C151.754 52.508 150.951 52.8347 150.316 53.488C149.682 54.1413 149.364 54.9533 149.364 55.924C149.364 56.8947 149.682 57.716 150.316 58.388C150.951 59.0413 151.754 59.368 152.724 59.368C153.695 59.368 154.498 59.0413 155.132 58.388C155.767 57.716 156.084 56.8947 156.084 55.924C156.084 54.9533 155.767 54.1413 155.132 53.488ZM170.961 52.788H167.601V62H164.185V52.788H160.825V49.876H170.961V52.788ZM171.326 62L173.538 49.876H176.058L179.39 56.848L182.722 49.876H185.242L187.454 62H184.038L183.03 55.42L180.006 62H178.774L175.75 55.42L174.742 62H171.326ZM190.992 51.192C192.224 50.0533 193.857 49.484 195.892 49.484C197.926 49.484 199.56 50.0533 200.792 51.192C202.154 52.424 202.836 54.0107 202.836 55.952C202.836 57.8747 202.154 59.452 200.792 60.684C199.56 61.8227 197.926 62.392 195.892 62.392C193.857 62.392 192.224 61.8227 190.992 60.684C189.629 59.452 188.948 57.8747 188.948 55.952C188.948 54.0107 189.629 52.424 190.992 51.192ZM193.456 58.36C194.109 59.032 194.921 59.368 195.892 59.368C196.862 59.368 197.674 59.032 198.328 58.36C198.981 57.688 199.308 56.8853 199.308 55.952C199.308 55 198.981 54.188 198.328 53.516C197.674 52.844 196.862 52.508 195.892 52.508C194.921 52.508 194.109 52.844 193.456 53.516C192.802 54.188 192.476 55 192.476 55.952C192.476 56.8853 192.802 57.688 193.456 58.36ZM214.466 50.212V53.572C213.7 52.8627 212.767 52.508 211.666 52.508C210.583 52.508 209.743 52.844 209.146 53.516C208.548 54.1693 208.25 54.972 208.25 55.924C208.25 56.9133 208.576 57.7347 209.23 58.388C209.902 59.0413 210.751 59.368 211.778 59.368C212.786 59.368 213.682 59.0133 214.466 58.304V61.636C213.458 62.14 212.412 62.392 211.33 62.392C209.444 62.392 207.886 61.804 206.654 60.628C205.366 59.4147 204.722 57.8653 204.722 55.98C204.722 53.9267 205.422 52.284 206.822 51.052C207.998 50.0067 209.454 49.484 211.19 49.484C212.366 49.484 213.458 49.7267 214.466 50.212ZM223.229 68.412V62.168H222.949C221.232 62.168 219.813 61.7667 218.693 60.964C217.088 59.844 216.285 58.164 216.285 55.924C216.285 53.7213 217.088 52.0413 218.693 50.884C219.813 50.1 221.232 49.708 222.949 49.708H223.229V43.324H226.645V49.708H226.925C228.661 49.708 230.08 50.1 231.181 50.884C232.786 52.0413 233.589 53.7213 233.589 55.924C233.589 58.164 232.786 59.844 231.181 60.964C230.061 61.7667 228.642 62.168 226.925 62.168H226.645V68.412H223.229ZM223.229 59.144V52.732C222.389 52.6947 221.67 52.8813 221.073 53.292C220.233 53.8707 219.813 54.748 219.813 55.924C219.813 57.1373 220.224 58.0147 221.045 58.556C221.605 58.948 222.333 59.144 223.229 59.144ZM226.645 52.732V59.144C227.541 59.144 228.269 58.948 228.829 58.556C229.65 58.0147 230.061 57.1373 230.061 55.924C230.061 54.748 229.641 53.8707 228.801 53.292C228.204 52.8813 227.485 52.6947 226.645 52.732ZM244.857 58.108L247.993 58.612C247.862 58.948 247.685 59.284 247.461 59.62C247.256 59.9373 246.929 60.3387 246.481 60.824C246.033 61.2907 245.426 61.6733 244.661 61.972C243.896 62.252 243.018 62.392 242.029 62.392C240.125 62.392 238.576 61.8227 237.381 60.684C236.112 59.4893 235.477 57.912 235.477 55.952C235.477 54.0107 236.093 52.424 237.325 51.192C238.482 50.0533 240.004 49.484 241.889 49.484C243.942 49.484 245.52 50.1467 246.621 51.472C247.592 52.6293 248.077 54.216 248.077 56.232V56.512H239.005C239.005 57.3333 239.201 58.0147 239.593 58.556C240.153 59.3213 240.965 59.704 242.029 59.704C243.298 59.704 244.241 59.172 244.857 58.108ZM239.117 54.328H244.857C244.726 53.544 244.381 52.9467 243.821 52.536C243.28 52.1067 242.664 51.892 241.973 51.892C241.301 51.892 240.685 52.1067 240.125 52.536C239.584 52.9653 239.248 53.5627 239.117 54.328ZM253.998 60.432V68.412H250.582V49.876H253.998V51.444C254.912 50.1373 256.228 49.484 257.946 49.484C259.626 49.484 261.007 50.0253 262.09 51.108C263.303 52.3213 263.91 53.9267 263.91 55.924C263.91 57.9773 263.275 59.6107 262.006 60.824C260.886 61.8693 259.514 62.392 257.89 62.392C256.266 62.392 254.968 61.7387 253.998 60.432ZM257.022 52.508C256.144 52.508 255.407 52.7787 254.81 53.32C254.044 53.9733 253.662 54.8413 253.662 55.924C253.662 57.0253 254.035 57.9027 254.782 58.556C255.398 59.0973 256.144 59.368 257.022 59.368C257.936 59.368 258.702 59.0787 259.318 58.5C260.027 57.8467 260.382 56.988 260.382 55.924C260.382 54.8787 260.036 54.0293 259.346 53.376C258.711 52.7973 257.936 52.508 257.022 52.508ZM275.707 51.444V49.876H279.123V62H275.707V60.432C274.792 61.7387 273.551 62.392 271.983 62.392C270.153 62.392 268.66 61.7667 267.503 60.516C266.364 59.2653 265.795 57.7347 265.795 55.924C265.795 54.0947 266.355 52.564 267.475 51.332C268.595 50.1 270.041 49.484 271.815 49.484C273.569 49.484 274.867 50.1373 275.707 51.444ZM275.091 53.488C274.456 52.8347 273.653 52.508 272.683 52.508C271.712 52.508 270.909 52.8347 270.275 53.488C269.64 54.1413 269.323 54.9533 269.323 55.924C269.323 56.8947 269.64 57.716 270.275 58.388C270.909 59.0413 271.712 59.368 272.683 59.368C273.653 59.368 274.456 59.0413 275.091 58.388C275.725 57.716 276.043 56.8947 276.043 55.924C276.043 54.9533 275.725 54.1413 275.091 53.488Z" fill="white"/>
<path d="M26.476 88.269H22.75V102H21.048V88.269H17.322V86.659H26.476V88.269ZM33.9109 98.803L35.2909 99.562C34.9689 100.175 34.5779 100.689 34.1179 101.103C33.2439 101.885 32.1859 102.276 30.9439 102.276C29.6559 102.276 28.5443 101.862 27.6089 101.034C26.6889 100.191 26.2289 98.941 26.2289 97.285C26.2289 95.8283 26.6429 94.6247 27.4709 93.674C28.3143 92.708 29.4413 92.225 30.8519 92.225C32.4466 92.225 33.6503 92.8077 34.4629 93.973C35.1069 94.893 35.4059 96.089 35.3599 97.561H27.9309C27.9463 98.527 28.2453 99.309 28.8279 99.907C29.4106 100.505 30.1236 100.804 30.9669 100.804C31.7183 100.804 32.3699 100.574 32.9219 100.114C33.3513 99.746 33.6809 99.309 33.9109 98.803ZM28.0459 96.181H33.6579C33.5199 95.4297 33.1903 94.8317 32.6689 94.387C32.1629 93.927 31.5573 93.697 30.8519 93.697C30.1619 93.697 29.5486 93.9347 29.0119 94.41C28.4906 94.87 28.1686 95.4603 28.0459 96.181ZM28.1379 90.155C27.9079 89.925 27.7929 89.6567 27.7929 89.35C27.7929 89.0433 27.9079 88.775 28.1379 88.545C28.3679 88.315 28.6363 88.2 28.9429 88.2C29.2496 88.2 29.5179 88.315 29.7479 88.545C29.9779 88.775 30.0929 89.0433 30.0929 89.35C30.0929 89.6567 29.9779 89.925 29.7479 90.155C29.5179 90.385 29.2496 90.5 28.9429 90.5C28.6363 90.5 28.3679 90.385 28.1379 90.155ZM32.1399 90.155C31.9099 89.925 31.7949 89.6567 31.7949 89.35C31.7949 89.0433 31.9099 88.775 32.1399 88.545C32.3699 88.315 32.6383 88.2 32.9449 88.2C33.2516 88.2 33.5199 88.315 33.7499 88.545C33.9799 88.775 34.0949 89.0433 34.0949 89.35C34.0949 89.6567 33.9799 89.925 33.7499 90.155C33.5199 90.385 33.2516 90.5 32.9449 90.5C32.6383 90.5 32.3699 90.385 32.1399 90.155ZM37.7852 92.455H45.4672V102H43.8112V93.973H39.4412V102H37.7852V92.455ZM55.6959 92.455V102H54.0399V93.973H50.6359V98.274C50.6359 99.516 50.3906 100.436 49.8999 101.034C49.3479 101.709 48.5812 102.046 47.5999 102.046C47.4772 102.046 47.3086 102.031 47.0939 102V100.482C47.2472 100.513 47.3699 100.528 47.4619 100.528C47.9986 100.528 48.3972 100.321 48.6579 99.907C48.8726 99.5697 48.9799 99.0253 48.9799 98.274V92.455H55.6959ZM66.7864 100.85C65.8357 101.801 64.632 102.276 63.1754 102.276C61.7187 102.276 60.5074 101.801 59.5414 100.85C58.5907 99.8993 58.1154 98.7033 58.1154 97.262C58.1154 95.8053 58.5907 94.6017 59.5414 93.651C60.5074 92.7003 61.7187 92.225 63.1754 92.225C64.632 92.225 65.8357 92.7003 66.7864 93.651C67.7524 94.6017 68.2354 95.8053 68.2354 97.262C68.2354 98.7033 67.7524 99.8993 66.7864 100.85ZM65.5444 94.64C64.9004 94.0113 64.1107 93.697 63.1754 93.697C62.24 93.697 61.4427 94.019 60.7834 94.663C60.1394 95.2917 59.8174 96.158 59.8174 97.262C59.8174 98.366 60.147 99.2323 60.8064 99.861C61.4657 100.49 62.2554 100.804 63.1754 100.804C64.0954 100.804 64.885 100.49 65.5444 99.861C66.2037 99.2323 66.5334 98.366 66.5334 97.262C66.5334 96.1427 66.2037 95.2687 65.5444 94.64ZM77.7439 98.803L79.1239 99.562C78.8019 100.175 78.4109 100.689 77.9509 101.103C77.0769 101.885 76.0189 102.276 74.7769 102.276C73.4889 102.276 72.3772 101.862 71.4419 101.034C70.5219 100.191 70.0619 98.941 70.0619 97.285C70.0619 95.8283 70.4759 94.6247 71.3039 93.674C72.1472 92.708 73.2742 92.225 74.6849 92.225C76.2796 92.225 77.4832 92.8077 78.2959 93.973C78.9399 94.893 79.2389 96.089 79.1929 97.561H71.7639C71.7792 98.527 72.0782 99.309 72.6609 99.907C73.2436 100.505 73.9566 100.804 74.7999 100.804C75.5512 100.804 76.2029 100.574 76.7549 100.114C77.1842 99.746 77.5139 99.309 77.7439 98.803ZM71.8789 96.181H77.4909C77.3529 95.4297 77.0232 94.8317 76.5019 94.387C75.9959 93.927 75.3902 93.697 74.6849 93.697C73.9949 93.697 73.3816 93.9347 72.8449 94.41C72.3236 94.87 72.0016 95.4603 71.8789 96.181ZM86.8713 92.455H94.5533V102H92.8973V93.973H88.5273V102H86.8713V92.455ZM99.216 100.666V107.29H97.56V92.455H99.216V93.789C100.059 92.7463 101.148 92.225 102.482 92.225C103.908 92.225 105.035 92.731 105.863 93.743C106.706 94.7397 107.128 95.9203 107.128 97.285C107.128 98.665 106.714 99.8457 105.886 100.827C105.058 101.793 103.946 102.276 102.551 102.276C101.156 102.276 100.044 101.739 99.216 100.666ZM102.321 100.804C103.256 100.804 104.008 100.467 104.575 99.792C105.142 99.102 105.426 98.2663 105.426 97.285C105.426 96.181 105.112 95.307 104.483 94.663C103.854 94.019 103.126 93.697 102.298 93.697C101.47 93.697 100.734 94.019 100.09 94.663C99.446 95.307 99.124 96.1733 99.124 97.262C99.124 98.2587 99.4154 99.102 99.998 99.792C100.596 100.467 101.37 100.804 102.321 100.804ZM117.624 100.85C116.674 101.801 115.47 102.276 114.013 102.276C112.557 102.276 111.345 101.801 110.379 100.85C109.429 99.8993 108.953 98.7033 108.953 97.262C108.953 95.8053 109.429 94.6017 110.379 93.651C111.345 92.7003 112.557 92.225 114.013 92.225C115.47 92.225 116.674 92.7003 117.624 93.651C118.59 94.6017 119.073 95.8053 119.073 97.262C119.073 98.7033 118.59 99.8993 117.624 100.85ZM116.382 94.64C115.738 94.0113 114.949 93.697 114.013 93.697C113.078 93.697 112.281 94.019 111.621 94.663C110.977 95.2917 110.655 96.158 110.655 97.262C110.655 98.366 110.985 99.2323 111.644 99.861C112.304 100.49 113.093 100.804 114.013 100.804C114.933 100.804 115.723 100.49 116.382 99.861C117.042 99.2323 117.371 98.366 117.371 97.262C117.371 96.1427 117.042 95.2687 116.382 94.64ZM128.973 93.145V95.123C128.222 94.1723 127.225 93.697 125.983 93.697C125.048 93.697 124.25 94.019 123.591 94.663C122.932 95.2917 122.602 96.158 122.602 97.262C122.602 98.366 122.932 99.2323 123.591 99.861C124.25 100.49 125.04 100.804 125.96 100.804C127.187 100.804 128.214 100.306 129.042 99.309V101.287C128.137 101.946 127.125 102.276 126.006 102.276C124.519 102.276 123.292 101.808 122.326 100.873C121.375 99.9223 120.9 98.7263 120.9 97.285C120.9 95.8283 121.383 94.6247 122.349 93.674C123.315 92.708 124.534 92.225 126.006 92.225C127.11 92.225 128.099 92.5317 128.973 93.145ZM137.724 93.973H134.734V102H133.078V93.973H130.088V92.455H137.724V93.973ZM141.005 100.666V107.29H139.349V92.455H141.005V93.789C141.848 92.7463 142.937 92.225 144.271 92.225C145.697 92.225 146.824 92.731 147.652 93.743C148.495 94.7397 148.917 95.9203 148.917 97.285C148.917 98.665 148.503 99.8457 147.675 100.827C146.847 101.793 145.735 102.276 144.34 102.276C142.945 102.276 141.833 101.739 141.005 100.666ZM144.11 100.804C145.045 100.804 145.797 100.467 146.364 99.792C146.931 99.102 147.215 98.2663 147.215 97.285C147.215 96.181 146.901 95.307 146.272 94.663C145.643 94.019 144.915 93.697 144.087 93.697C143.259 93.697 142.523 94.019 141.879 94.663C141.235 95.307 140.913 96.1733 140.913 97.262C140.913 98.2587 141.204 99.102 141.787 99.792C142.385 100.467 143.159 100.804 144.11 100.804ZM158.654 93.812V92.455H160.31V102H158.654V100.666C157.826 101.739 156.738 102.276 155.388 102.276C154.1 102.276 153.004 101.831 152.099 100.942C151.195 100.053 150.742 98.8107 150.742 97.216C150.742 95.652 151.187 94.433 152.076 93.559C152.981 92.6697 154.085 92.225 155.388 92.225C156.768 92.225 157.857 92.754 158.654 93.812ZM155.572 93.697C154.698 93.697 153.955 94.0113 153.341 94.64C152.743 95.2533 152.444 96.112 152.444 97.216C152.444 98.274 152.72 99.1403 153.272 99.815C153.84 100.474 154.606 100.804 155.572 100.804C156.538 100.804 157.305 100.459 157.872 99.769C158.455 99.079 158.746 98.2357 158.746 97.239C158.746 96.1043 158.424 95.2303 157.78 94.617C157.136 94.0037 156.4 93.697 155.572 93.697ZM163.332 102V92.455H164.988V96.365H169.496V92.455H171.152V102H169.496V97.883H164.988V102H163.332ZM181.63 93.145V95.123C180.879 94.1723 179.882 93.697 178.64 93.697C177.705 93.697 176.908 94.019 176.248 94.663C175.589 95.2917 175.259 96.158 175.259 97.262C175.259 98.366 175.589 99.2323 176.248 99.861C176.908 100.49 177.697 100.804 178.617 100.804C179.844 100.804 180.871 100.306 181.699 99.309V101.287C180.795 101.946 179.783 102.276 178.663 102.276C177.176 102.276 175.949 101.808 174.983 100.873C174.033 99.9223 173.557 98.7263 173.557 97.285C173.557 95.8283 174.04 94.6247 175.006 93.674C175.972 92.708 177.191 92.225 178.663 92.225C179.767 92.225 180.756 92.5317 181.63 93.145ZM190.381 93.973H187.391V102H185.735V93.973H182.745V92.455H190.381V93.973ZM192.006 92.455H195.617C196.491 92.455 197.158 92.639 197.618 93.007C198.17 93.4517 198.446 94.0497 198.446 94.801C198.446 95.629 198.101 96.2653 197.411 96.71C197.887 96.8327 198.285 97.0473 198.607 97.354C199.113 97.8447 199.366 98.458 199.366 99.194C199.366 100.114 199.037 100.835 198.377 101.356C197.81 101.785 197.059 102 196.123 102H192.006V92.455ZM193.662 96.342H195.41C195.855 96.342 196.208 96.25 196.468 96.066C196.775 95.836 196.928 95.5063 196.928 95.077C196.928 94.6937 196.775 94.387 196.468 94.157C196.238 94.0037 195.794 93.927 195.134 93.927H193.662V96.342ZM193.662 100.528H195.709C196.415 100.528 196.913 100.421 197.204 100.206C197.572 99.93 197.756 99.5773 197.756 99.148C197.756 98.688 197.595 98.3277 197.273 98.067C196.982 97.837 196.484 97.722 195.778 97.722H193.662V100.528ZM209.847 100.85C208.897 101.801 207.693 102.276 206.236 102.276C204.78 102.276 203.568 101.801 202.602 100.85C201.652 99.8993 201.176 98.7033 201.176 97.262C201.176 95.8053 201.652 94.6017 202.602 93.651C203.568 92.7003 204.78 92.225 206.236 92.225C207.693 92.225 208.897 92.7003 209.847 93.651C210.813 94.6017 211.296 95.8053 211.296 97.262C211.296 98.7033 210.813 99.8993 209.847 100.85ZM208.605 94.64C207.961 94.0113 207.172 93.697 206.236 93.697C205.301 93.697 204.504 94.019 203.844 94.663C203.2 95.2917 202.878 96.158 202.878 97.262C202.878 98.366 203.208 99.2323 203.867 99.861C204.527 100.49 205.316 100.804 206.236 100.804C207.156 100.804 207.946 100.49 208.605 99.861C209.265 99.2323 209.594 98.366 209.594 97.262C209.594 96.1427 209.265 95.2687 208.605 94.64ZM212.709 105.059L214.595 99.746L216.113 100.298L213.79 105.496L212.709 105.059ZM18.564 125V115.455H24.222V116.973H20.22V125H18.564ZM26.4613 115.455H33.1773V123.482H34.6033V127.53H33.0853V125H25.8173V127.53H24.2993V123.482C25.0966 123.467 25.6869 123.053 26.0703 122.24C26.3309 121.703 26.4613 120.86 26.4613 119.71V115.455ZM31.5213 123.482V116.973H28.1173V120.561C28.1173 121.834 27.7339 122.807 26.9673 123.482H31.5213ZM43.3194 121.803L44.6994 122.562C44.3774 123.175 43.9864 123.689 43.5264 124.103C42.6524 124.885 41.5944 125.276 40.3524 125.276C39.0644 125.276 37.9527 124.862 37.0174 124.034C36.0974 123.191 35.6374 121.941 35.6374 120.285C35.6374 118.828 36.0514 117.625 36.8794 116.674C37.7227 115.708 38.8497 115.225 40.2604 115.225C41.855 115.225 43.0587 115.808 43.8714 116.973C44.5154 117.893 44.8144 119.089 44.7684 120.561H37.3394C37.3547 121.527 37.6537 122.309 38.2364 122.907C38.819 123.505 39.532 123.804 40.3754 123.804C41.1267 123.804 41.7784 123.574 42.3304 123.114C42.7597 122.746 43.0894 122.309 43.3194 121.803ZM37.4544 119.181H43.0664C42.9284 118.43 42.5987 117.832 42.0774 117.387C41.5714 116.927 40.9657 116.697 40.2604 116.697C39.5704 116.697 38.957 116.935 38.4204 117.41C37.899 117.87 37.577 118.46 37.4544 119.181ZM53.1368 115.455H59.8528V123.482H61.2788V127.53H59.7608V125H52.4928V127.53H50.9748V123.482C51.7721 123.467 52.3624 123.053 52.7458 122.24C53.0064 121.703 53.1368 120.86 53.1368 119.71V115.455ZM58.1968 123.482V116.973H54.7928V120.561C54.7928 121.834 54.4094 122.807 53.6428 123.482H58.1968ZM69.9949 121.803L71.3749 122.562C71.0529 123.175 70.6619 123.689 70.2019 124.103C69.3279 124.885 68.2699 125.276 67.0279 125.276C65.7399 125.276 64.6282 124.862 63.6929 124.034C62.7729 123.191 62.3129 121.941 62.3129 120.285C62.3129 118.828 62.7269 117.625 63.5549 116.674C64.3982 115.708 65.5252 115.225 66.9359 115.225C68.5305 115.225 69.7342 115.808 70.5469 116.973C71.1909 117.893 71.4899 119.089 71.4439 120.561H64.0149C64.0302 121.527 64.3292 122.309 64.9119 122.907C65.4945 123.505 66.2075 123.804 67.0509 123.804C67.8022 123.804 68.4539 123.574 69.0059 123.114C69.4352 122.746 69.7649 122.309 69.9949 121.803ZM64.1299 119.181H69.7419C69.6039 118.43 69.2742 117.832 68.7529 117.387C68.2469 116.927 67.6412 116.697 66.9359 116.697C66.2459 116.697 65.6325 116.935 65.0959 117.41C64.5745 117.87 64.2525 118.46 64.1299 119.181ZM80.1251 116.973H77.1351V125H75.4791V116.973H72.4891V115.455H80.1251V116.973ZM80.6462 125L83.6132 121.067C83.5212 121.067 83.3909 121.052 83.2222 121.021C83.0689 120.99 82.8389 120.914 82.5322 120.791C82.2255 120.668 81.9725 120.507 81.7732 120.308C81.2672 119.833 81.0142 119.196 81.0142 118.399C81.0142 117.494 81.2979 116.781 81.8652 116.26C82.4325 115.723 83.3679 115.455 84.6712 115.455H88.0062V125H86.3502V121.159H85.3382L82.6242 125H80.6462ZM86.3502 119.779V116.927H84.8092C84.0885 116.927 83.5902 117.011 83.3142 117.18C82.9155 117.441 82.7162 117.832 82.7162 118.353C82.7162 118.874 82.9155 119.258 83.3142 119.503C83.6055 119.687 84.0962 119.779 84.7862 119.779H86.3502ZM89.9199 125L92.2199 114.719L96.1759 122.493L100.04 114.719L102.34 125H100.638L99.3729 119.089L96.1299 125.667L92.8409 119.089L91.6219 125H89.9199ZM116.979 116.145V118.123C116.228 117.172 115.231 116.697 113.989 116.697C113.054 116.697 112.256 117.019 111.597 117.663C110.938 118.292 110.608 119.158 110.608 120.262C110.608 121.366 110.938 122.232 111.597 122.861C112.256 123.49 113.046 123.804 113.966 123.804C115.193 123.804 116.22 123.306 117.048 122.309V124.287C116.143 124.946 115.131 125.276 114.012 125.276C112.525 125.276 111.298 124.808 110.332 123.873C109.381 122.922 108.906 121.726 108.906 120.285C108.906 118.828 109.389 117.625 110.355 116.674C111.321 115.708 112.54 115.225 114.012 115.225C115.116 115.225 116.105 115.532 116.979 116.145ZM119.474 115.455H127.156V125H125.5V116.973H121.13V125H119.474V115.455ZM138.236 123.85C137.285 124.801 136.081 125.276 134.625 125.276C133.168 125.276 131.957 124.801 130.991 123.85C130.04 122.899 129.565 121.703 129.565 120.262C129.565 118.805 130.04 117.602 130.991 116.651C131.957 115.7 133.168 115.225 134.625 115.225C136.081 115.225 137.285 115.7 138.236 116.651C139.202 117.602 139.685 118.805 139.685 120.262C139.685 121.703 139.202 122.899 138.236 123.85ZM136.994 117.64C136.35 117.011 135.56 116.697 134.625 116.697C133.689 116.697 132.892 117.019 132.233 117.663C131.589 118.292 131.267 119.158 131.267 120.262C131.267 121.366 131.596 122.232 132.256 122.861C132.915 123.49 133.705 123.804 134.625 123.804C135.545 123.804 136.334 123.49 136.994 122.861C137.653 122.232 137.983 121.366 137.983 120.262C137.983 119.143 137.653 118.269 136.994 117.64ZM142.109 115.455H143.765V119.365L147.629 115.455H149.653L145.513 119.71L150.159 125H147.997L144.271 120.814L143.765 121.297V125H142.109V115.455ZM159.321 123.85C158.37 124.801 157.167 125.276 155.71 125.276C154.253 125.276 153.042 124.801 152.076 123.85C151.125 122.899 150.65 121.703 150.65 120.262C150.65 118.805 151.125 117.602 152.076 116.651C153.042 115.7 154.253 115.225 155.71 115.225C157.167 115.225 158.37 115.7 159.321 116.651C160.287 117.602 160.77 118.805 160.77 120.262C160.77 121.703 160.287 122.899 159.321 123.85ZM158.079 117.64C157.435 117.011 156.645 116.697 155.71 116.697C154.775 116.697 153.977 117.019 153.318 117.663C152.674 118.292 152.352 119.158 152.352 120.262C152.352 121.366 152.682 122.232 153.341 122.861C154 123.49 154.79 123.804 155.71 123.804C156.63 123.804 157.42 123.49 158.079 122.861C158.738 122.232 159.068 121.366 159.068 120.262C159.068 119.143 158.738 118.269 158.079 117.64ZM163.194 115.455H164.85V121.757L171.382 114.719V125H169.726V118.629L163.194 125.667V115.455ZM164.022 111.338L165.402 110.809C165.678 111.729 166.33 112.189 167.357 112.189C168.385 112.189 169.036 111.729 169.312 110.809L170.692 111.338C170.447 112.028 170.025 112.572 169.427 112.971C168.845 113.37 168.155 113.569 167.357 113.569C166.56 113.569 165.862 113.37 165.264 112.971C164.682 112.572 164.268 112.028 164.022 111.338ZM174.4 125V115.455H176.056V119.365H180.564V115.455H182.22V125H180.564V120.883H176.056V125H174.4ZM193.296 123.85C192.346 124.801 191.142 125.276 189.685 125.276C188.229 125.276 187.017 124.801 186.051 123.85C185.101 122.899 184.625 121.703 184.625 120.262C184.625 118.805 185.101 117.602 186.051 116.651C187.017 115.7 188.229 115.225 189.685 115.225C191.142 115.225 192.346 115.7 193.296 116.651C194.262 117.602 194.745 118.805 194.745 120.262C194.745 121.703 194.262 122.899 193.296 123.85ZM192.054 117.64C191.41 117.011 190.621 116.697 189.685 116.697C188.75 116.697 187.953 117.019 187.293 117.663C186.649 118.292 186.327 119.158 186.327 120.262C186.327 121.366 186.657 122.232 187.316 122.861C187.976 123.49 188.765 123.804 189.685 123.804C190.605 123.804 191.395 123.49 192.054 122.861C192.714 122.232 193.043 121.366 193.043 120.262C193.043 119.143 192.714 118.269 192.054 117.64ZM196.158 128.059L198.044 122.746L199.562 123.298L197.239 128.496L196.158 128.059ZM18.564 138.455H20.22V144.757L26.752 137.719V148H25.096V141.629L18.564 148.667V138.455ZM29.7693 148V138.455H31.4253V142.365H35.9333V138.455H37.5893V148H35.9333V143.883H31.4253V148H29.7693ZM46.8488 139.973H43.8588V148H42.2028V139.973H39.2128V138.455H46.8488V139.973ZM55.3333 144.803L56.7133 145.562C56.3913 146.175 56.0003 146.689 55.5403 147.103C54.6663 147.885 53.6083 148.276 52.3663 148.276C51.0783 148.276 49.9666 147.862 49.0313 147.034C48.1113 146.191 47.6513 144.941 47.6513 143.285C47.6513 141.828 48.0653 140.625 48.8933 139.674C49.7366 138.708 50.8636 138.225 52.2743 138.225C53.8689 138.225 55.0726 138.808 55.8853 139.973C56.5293 140.893 56.8283 142.089 56.7823 143.561H49.3533C49.3686 144.527 49.6676 145.309 50.2503 145.907C50.8329 146.505 51.5459 146.804 52.3893 146.804C53.1406 146.804 53.7923 146.574 54.3443 146.114C54.7736 145.746 55.1033 145.309 55.3333 144.803ZM49.4683 142.181H55.0803C54.9423 141.43 54.6126 140.832 54.0913 140.387C53.5853 139.927 52.9796 139.697 52.2743 139.697C51.5843 139.697 50.9709 139.935 50.4343 140.41C49.9129 140.87 49.5909 141.46 49.4683 142.181ZM60.8635 146.666V153.29H59.2075V138.455H60.8635V139.789C61.7068 138.746 62.7955 138.225 64.1295 138.225C65.5555 138.225 66.6825 138.731 67.5105 139.743C68.3539 140.74 68.7755 141.92 68.7755 143.285C68.7755 144.665 68.3615 145.846 67.5335 146.827C66.7055 147.793 65.5939 148.276 64.1985 148.276C62.8032 148.276 61.6915 147.739 60.8635 146.666ZM63.9685 146.804C64.9039 146.804 65.6552 146.467 66.2225 145.792C66.7899 145.102 67.0735 144.266 67.0735 143.285C67.0735 142.181 66.7592 141.307 66.1305 140.663C65.5019 140.019 64.7735 139.697 63.9455 139.697C63.1175 139.697 62.3815 140.019 61.7375 140.663C61.0935 141.307 60.7715 142.173 60.7715 143.262C60.7715 144.259 61.0629 145.102 61.6455 145.792C62.2435 146.467 63.0179 146.804 63.9685 146.804ZM78.283 144.803L79.663 145.562C79.341 146.175 78.95 146.689 78.49 147.103C77.616 147.885 76.558 148.276 75.316 148.276C74.028 148.276 72.9163 147.862 71.981 147.034C71.061 146.191 70.601 144.941 70.601 143.285C70.601 141.828 71.015 140.625 71.843 139.674C72.6863 138.708 73.8133 138.225 75.224 138.225C76.8186 138.225 78.0223 138.808 78.835 139.973C79.479 140.893 79.778 142.089 79.732 143.561H72.303C72.3183 144.527 72.6173 145.309 73.2 145.907C73.7826 146.505 74.4956 146.804 75.339 146.804C76.0903 146.804 76.742 146.574 77.294 146.114C77.7233 145.746 78.053 145.309 78.283 144.803ZM72.418 142.181H78.03C77.892 141.43 77.5623 140.832 77.041 140.387C76.535 139.927 75.9293 139.697 75.224 139.697C74.534 139.697 73.9206 139.935 73.384 140.41C72.8626 140.87 72.5406 141.46 72.418 142.181ZM89.6322 139.145V141.123C88.8809 140.172 87.8842 139.697 86.6422 139.697C85.7069 139.697 84.9095 140.019 84.2502 140.663C83.5909 141.292 83.2612 142.158 83.2612 143.262C83.2612 144.366 83.5909 145.232 84.2502 145.861C84.9095 146.49 85.6992 146.804 86.6192 146.804C87.8459 146.804 88.8732 146.306 89.7012 145.309V147.287C88.7965 147.946 87.7845 148.276 86.6652 148.276C85.1779 148.276 83.9512 147.808 82.9852 146.873C82.0345 145.922 81.5592 144.726 81.5592 143.285C81.5592 141.828 82.0422 140.625 83.0082 139.674C83.9742 138.708 85.1932 138.225 86.6652 138.225C87.7692 138.225 88.7582 138.532 89.6322 139.145ZM92.1272 148V138.455H93.7832V142.365H98.2912V138.455H99.9472V148H98.2912V143.883H93.7832V148H92.1272ZM111.024 146.85C110.073 147.801 108.869 148.276 107.413 148.276C105.956 148.276 104.745 147.801 103.779 146.85C102.828 145.899 102.353 144.703 102.353 143.262C102.353 141.805 102.828 140.602 103.779 139.651C104.745 138.7 105.956 138.225 107.413 138.225C108.869 138.225 110.073 138.7 111.024 139.651C111.99 140.602 112.473 141.805 112.473 143.262C112.473 144.703 111.99 145.899 111.024 146.85ZM109.782 140.64C109.138 140.011 108.348 139.697 107.413 139.697C106.477 139.697 105.68 140.019 105.021 140.663C104.377 141.292 104.055 142.158 104.055 143.262C104.055 144.366 104.384 145.232 105.044 145.861C105.703 146.49 106.493 146.804 107.413 146.804C108.333 146.804 109.122 146.49 109.782 145.861C110.441 145.232 110.771 144.366 110.771 143.262C110.771 142.143 110.441 141.269 109.782 140.64ZM120.15 138.455H121.806V144.757L128.338 137.719V148H126.682V141.629L120.15 148.667V138.455ZM143.969 131.9H145.809C145.64 132.467 145.349 132.95 144.935 133.349C144.536 133.732 144.168 133.993 143.831 134.131C143.509 134.269 143.125 134.392 142.681 134.499C142.604 134.514 142.42 134.56 142.129 134.637C141.837 134.698 141.615 134.752 141.462 134.798C141.308 134.844 141.109 134.905 140.864 134.982C140.618 135.059 140.396 135.151 140.197 135.258C139.997 135.365 139.813 135.48 139.645 135.603C139.062 136.048 138.587 136.669 138.219 137.466C137.866 138.248 137.674 139.084 137.644 139.973H137.69C138.38 138.808 139.537 138.225 141.163 138.225C142.589 138.225 143.769 138.708 144.705 139.674C145.655 140.64 146.131 141.836 146.131 143.262C146.131 144.703 145.648 145.899 144.682 146.85C143.716 147.801 142.458 148.276 140.91 148.276C139.576 148.276 138.479 147.877 137.621 147.08C136.547 146.099 136.011 144.458 136.011 142.158C136.011 138.156 136.915 135.534 138.725 134.292C138.863 134.2 139.008 134.116 139.162 134.039C139.315 133.947 139.476 133.87 139.645 133.809C139.829 133.732 139.982 133.671 140.105 133.625C140.227 133.564 140.396 133.51 140.611 133.464C140.841 133.403 140.994 133.364 141.071 133.349C141.163 133.318 141.331 133.28 141.577 133.234C141.837 133.173 141.998 133.134 142.06 133.119C142.673 132.981 143.118 132.82 143.394 132.636C143.67 132.437 143.861 132.191 143.969 131.9ZM143.44 140.64C142.796 140.011 142.006 139.697 141.071 139.697C140.135 139.697 139.338 140.019 138.679 140.663C138.035 141.292 137.713 142.158 137.713 143.262C137.713 144.366 138.042 145.232 138.702 145.861C139.361 146.49 140.151 146.804 141.071 146.804C141.991 146.804 142.78 146.49 143.44 145.861C144.099 145.232 144.429 144.366 144.429 143.262C144.429 142.143 144.099 141.269 143.44 140.64ZM155.639 144.803L157.019 145.562C156.697 146.175 156.306 146.689 155.846 147.103C154.972 147.885 153.914 148.276 152.672 148.276C151.384 148.276 150.273 147.862 149.337 147.034C148.417 146.191 147.957 144.941 147.957 143.285C147.957 141.828 148.371 140.625 149.199 139.674C150.043 138.708 151.17 138.225 152.58 138.225C154.175 138.225 155.379 138.808 156.191 139.973C156.835 140.893 157.134 142.089 157.088 143.561H149.659C149.675 144.527 149.974 145.309 150.556 145.907C151.139 146.505 151.852 146.804 152.695 146.804C153.447 146.804 154.098 146.574 154.65 146.114C155.08 145.746 155.409 145.309 155.639 144.803ZM149.774 142.181H155.386C155.248 141.43 154.919 140.832 154.397 140.387C153.891 139.927 153.286 139.697 152.58 139.697C151.89 139.697 151.277 139.935 150.74 140.41C150.219 140.87 149.897 141.46 149.774 142.181ZM160.531 140.893L159.381 139.95C159.749 139.413 160.155 139.015 160.6 138.754C161.198 138.401 161.896 138.225 162.693 138.225C163.659 138.225 164.41 138.447 164.947 138.892C165.499 139.367 165.775 139.973 165.775 140.709C165.775 141.598 165.415 142.265 164.694 142.71C165.154 142.817 165.522 143.024 165.798 143.331C166.243 143.806 166.465 144.389 166.465 145.079C166.465 146.106 166.051 146.927 165.223 147.54C164.548 148.031 163.644 148.276 162.509 148.276C161.497 148.276 160.646 148.008 159.956 147.471C159.435 147.088 159.013 146.543 158.691 145.838L160.117 145.24C160.286 145.669 160.569 146.03 160.968 146.321C161.397 146.643 161.919 146.804 162.532 146.804C163.253 146.804 163.789 146.681 164.142 146.436C164.587 146.145 164.809 145.7 164.809 145.102C164.809 144.611 164.617 144.243 164.234 143.998C163.912 143.783 163.391 143.676 162.67 143.676H161.704V142.158H162.509C163.092 142.158 163.506 142.074 163.751 141.905C164.088 141.69 164.257 141.399 164.257 141.031C164.257 140.602 164.119 140.272 163.843 140.042C163.582 139.812 163.176 139.697 162.624 139.697C162.149 139.697 161.712 139.82 161.313 140.065C160.976 140.28 160.715 140.556 160.531 140.893ZM176.95 146.85C175.999 147.801 174.796 148.276 173.339 148.276C171.882 148.276 170.671 147.801 169.705 146.85C168.754 145.899 168.279 144.703 168.279 143.262C168.279 141.805 168.754 140.602 169.705 139.651C170.671 138.7 171.882 138.225 173.339 138.225C174.796 138.225 175.999 138.7 176.95 139.651C177.916 140.602 178.399 141.805 178.399 143.262C178.399 144.703 177.916 145.899 176.95 146.85ZM175.708 140.64C175.064 140.011 174.274 139.697 173.339 139.697C172.404 139.697 171.606 140.019 170.947 140.663C170.303 141.292 169.981 142.158 169.981 143.262C169.981 144.366 170.311 145.232 170.97 145.861C171.629 146.49 172.419 146.804 173.339 146.804C174.259 146.804 175.049 146.49 175.708 145.861C176.367 145.232 176.697 144.366 176.697 143.262C176.697 142.143 176.367 141.269 175.708 140.64ZM180.824 138.455H188.506V148H186.85V139.973H182.48V148H180.824V138.455ZM198.826 139.812V138.455H200.482V148H198.826V146.666C197.998 147.739 196.91 148.276 195.56 148.276C194.272 148.276 193.176 147.831 192.271 146.942C191.367 146.053 190.914 144.811 190.914 143.216C190.914 141.652 191.359 140.433 192.248 139.559C193.153 138.67 194.257 138.225 195.56 138.225C196.94 138.225 198.029 138.754 198.826 139.812ZM195.744 139.697C194.87 139.697 194.127 140.011 193.513 140.64C192.915 141.253 192.616 142.112 192.616 143.216C192.616 144.274 192.892 145.14 193.444 145.815C194.012 146.474 194.778 146.804 195.744 146.804C196.71 146.804 197.477 146.459 198.044 145.769C198.627 145.079 198.918 144.236 198.918 143.239C198.918 142.104 198.596 141.23 197.952 140.617C197.308 140.004 196.572 139.697 195.744 139.697ZM210.979 139.145V141.123C210.227 140.172 209.231 139.697 207.989 139.697C207.053 139.697 206.256 140.019 205.597 140.663C204.937 141.292 204.608 142.158 204.608 143.262C204.608 144.366 204.937 145.232 205.597 145.861C206.256 146.49 207.046 146.804 207.966 146.804C209.192 146.804 210.22 146.306 211.048 145.309V147.287C210.143 147.946 209.131 148.276 208.012 148.276C206.524 148.276 205.298 147.808 204.332 146.873C203.381 145.922 202.906 144.726 202.906 143.285C202.906 141.828 203.389 140.625 204.355 139.674C205.321 138.708 206.54 138.225 208.012 138.225C209.116 138.225 210.105 138.532 210.979 139.145ZM213.474 148V138.455H215.13V142.365H219.638V138.455H221.294V148H219.638V143.883H215.13V148H213.474ZM232.37 146.85C231.42 147.801 230.216 148.276 228.759 148.276C227.303 148.276 226.091 147.801 225.125 146.85C224.175 145.899 223.699 144.703 223.699 143.262C223.699 141.805 224.175 140.602 225.125 139.651C226.091 138.7 227.303 138.225 228.759 138.225C230.216 138.225 231.42 138.7 232.37 139.651C233.336 140.602 233.819 141.805 233.819 143.262C233.819 144.703 233.336 145.899 232.37 146.85ZM231.128 140.64C230.484 140.011 229.695 139.697 228.759 139.697C227.824 139.697 227.027 140.019 226.367 140.663C225.723 141.292 225.401 142.158 225.401 143.262C225.401 144.366 225.731 145.232 226.39 145.861C227.05 146.49 227.839 146.804 228.759 146.804C229.679 146.804 230.469 146.49 231.128 145.861C231.788 145.232 232.117 144.366 232.117 143.262C232.117 142.143 231.788 141.269 231.128 140.64ZM18.564 161.455H20.22V165.365L24.084 161.455H26.108L21.968 165.71L26.614 171H24.452L20.726 166.814L20.22 167.297V171H18.564V161.455ZM35.4661 162.812V161.455H37.1221V171H35.4661V169.666C34.6381 170.739 33.5495 171.276 32.2001 171.276C30.9121 171.276 29.8158 170.831 28.9111 169.942C28.0065 169.053 27.5541 167.811 27.5541 166.216C27.5541 164.652 27.9988 163.433 28.8881 162.559C29.7928 161.67 30.8968 161.225 32.2001 161.225C33.5801 161.225 34.6688 161.754 35.4661 162.812ZM32.3841 162.697C31.5101 162.697 30.7665 163.011 30.1531 163.64C29.5551 164.253 29.2561 165.112 29.2561 166.216C29.2561 167.274 29.5321 168.14 30.0841 168.815C30.6515 169.474 31.4181 169.804 32.3841 169.804C33.3501 169.804 34.1168 169.459 34.6841 168.769C35.2668 168.079 35.5581 167.236 35.5581 166.239C35.5581 165.104 35.2361 164.23 34.5921 163.617C33.9481 163.004 33.2121 162.697 32.3841 162.697ZM44.6056 161.455H46.2616V165.365L49.8496 161.455H51.7816L47.6416 165.871L52.1956 171H50.1256L46.5836 166.975L46.2616 167.297V171H44.6056V167.297L44.2836 166.975L40.7416 171H38.6716L43.2256 165.871L39.0856 161.455H41.0176L44.6056 165.365V161.455ZM54.4197 161.455H61.1357V169.482H62.5617V173.53H61.0437V171H53.7757V173.53H52.2577V169.482C53.0551 169.467 53.6454 169.053 54.0287 168.24C54.2894 167.703 54.4197 166.86 54.4197 165.71V161.455ZM59.4797 169.482V162.973H56.0757V166.561C56.0757 167.834 55.6924 168.807 54.9257 169.482H59.4797ZM64.1938 171V161.455H65.8498V165.112H67.5518C68.8705 165.112 69.8365 165.426 70.4498 166.055C70.9405 166.546 71.1858 167.213 71.1858 168.056C71.1858 168.945 70.9022 169.658 70.3348 170.195C69.7675 170.732 68.8322 171 67.5288 171H64.1938ZM65.8498 169.528H67.3908C68.0808 169.528 68.5715 169.444 68.8628 169.275C69.2768 168.999 69.4838 168.593 69.4838 168.056C69.4838 167.504 69.2845 167.105 68.8858 166.86C68.6098 166.676 68.1192 166.584 67.4138 166.584H65.8498V169.528ZM72.3358 171V161.455H73.9918V171H72.3358ZM76.9939 161.455H78.6499V167.757L85.1819 160.719V171H83.5259V164.629L76.9939 171.667V161.455ZM77.8219 157.338L79.2019 156.809C79.4779 157.729 80.1295 158.189 81.1569 158.189C82.1842 158.189 82.8359 157.729 83.1119 156.809L84.4919 157.338C84.2465 158.028 83.8249 158.572 83.2269 158.971C82.6442 159.37 81.9542 159.569 81.1569 159.569C80.3595 159.569 79.6619 159.37 79.0639 158.971C78.4812 158.572 78.0672 158.028 77.8219 157.338ZM94.1424 161.455H100.858V169.482H102.284V173.53H100.766V171H93.4984V173.53H91.9804V169.482C92.7777 169.467 93.368 169.053 93.7514 168.24C94.012 167.703 94.1424 166.86 94.1424 165.71V161.455ZM99.2024 169.482V162.973H95.7984V166.561C95.7984 167.834 95.415 168.807 94.6484 169.482H99.2024ZM111 167.803L112.38 168.562C112.058 169.175 111.667 169.689 111.207 170.103C110.333 170.885 109.275 171.276 108.033 171.276C106.745 171.276 105.634 170.862 104.698 170.034C103.778 169.191 103.318 167.941 103.318 166.285C103.318 164.828 103.732 163.625 104.56 162.674C105.404 161.708 106.531 161.225 107.941 161.225C109.536 161.225 110.74 161.808 111.552 162.973C112.196 163.893 112.495 165.089 112.449 166.561H105.02C105.036 167.527 105.335 168.309 105.917 168.907C106.5 169.505 107.213 169.804 108.056 169.804C108.808 169.804 109.459 169.574 110.011 169.114C110.441 168.746 110.77 168.309 111 167.803ZM105.135 165.181H110.747C110.609 164.43 110.28 163.832 109.758 163.387C109.252 162.927 108.647 162.697 107.941 162.697C107.251 162.697 106.638 162.935 106.101 163.41C105.58 163.87 105.258 164.46 105.135 165.181ZM114.875 171V161.455H116.531V165.365H121.039V161.455H122.695V171H121.039V166.883H116.531V171H114.875ZM125.698 171V161.455H127.354V165.112H129.056C130.375 165.112 131.341 165.426 131.954 166.055C132.445 166.546 132.69 167.213 132.69 168.056C132.69 168.945 132.407 169.658 131.839 170.195C131.272 170.732 130.337 171 129.033 171H125.698ZM127.354 169.528H128.895C129.585 169.528 130.076 169.444 130.367 169.275C130.781 168.999 130.988 168.593 130.988 168.056C130.988 167.504 130.789 167.105 130.39 166.86C130.114 166.676 129.624 166.584 128.918 166.584H127.354V169.528Z" fill="white"/>
<defs>
<filter id="filter0_i_7_87" x="-3" y="0" width="306" height="226" filterUnits="userSpaceOnUse" color-interpolation-filters="sRGB">
<feFlood flood-opacity="0" result="BackgroundImageFix"/>
<feBlend mode="normal" in="SourceGraphic" in2="BackgroundImageFix" result="shape"/>
<feColorMatrix in="SourceAlpha" type="matrix" values="0 0 0 0 0 0 0 0 0 0 0 0 0 0 0 0 0 0 127 0" result="hardAlpha"/>
<feOffset dx="-3" dy="5"/>
<feGaussianBlur stdDeviation="3"/>
<feComposite in2="hardAlpha" operator="arithmetic" k2="-1" k3="1"/>
<feColorMatrix type="matrix" values="0 0 0 0 0.617211 0 0 0 0 0.911196 0 0 0 0 0.995192 0 0 0 1 0"/>
<feBlend mode="normal" in2="shape" result="effect1_innerShadow_7_87"/>
</filter>
</defs>
</svg>
