<svg width="233" height="24" viewBox="0 0 233 24" fill="none" xmlns="http://www.w3.org/2000/svg">
<path d="M1.49012e-08 -2.14577e-05H3.12C4.85333 -2.14577e-05 6.17933 0.363979 7.098 1.09198C8.138 1.88931 8.658 3.08531 8.658 4.67998C8.658 6.17065 8.086 7.30598 6.942 8.08598C8.05133 8.36331 8.87467 8.92665 9.412 9.77598C9.96667 10.608 10.244 11.5006 10.244 12.454C10.244 13.234 10.0707 13.9533 9.724 14.612C9.39467 15.2706 8.97867 15.7993 8.476 16.198C7.50533 16.9606 6.11867 17.342 4.316 17.342H1.49012e-08V-2.14577e-05ZM1.924 1.81998V7.61798H3.38C3.64 7.61798 3.89133 7.60931 4.134 7.59198C4.37667 7.55731 4.66267 7.48798 4.992 7.38398C5.33867 7.26265 5.63333 7.10665 5.876 6.91598C6.136 6.72531 6.35267 6.43931 6.526 6.05798C6.69933 5.67665 6.786 5.23465 6.786 4.73198C6.786 4.19465 6.682 3.73531 6.474 3.35398C6.266 2.95531 6.032 2.66065 5.772 2.46998C5.512 2.27931 5.2 2.13198 4.836 2.02798C4.472 1.92398 4.19467 1.86331 4.004 1.84598C3.81333 1.82865 3.62267 1.81998 3.432 1.81998H1.924ZM1.924 9.33398V15.522H4.134C5.538 15.522 6.552 15.2793 7.176 14.794C7.93867 14.2393 8.32 13.442 8.32 12.402C8.32 11.2406 7.826 10.3913 6.838 9.85398C6.214 9.50731 5.23467 9.33398 3.9 9.33398H1.924ZM22.3151 16.042C21.2404 17.1166 19.8798 17.654 18.2331 17.654C16.5864 17.654 15.2171 17.1166 14.1251 16.042C13.0504 14.9673 12.5131 13.6153 12.5131 11.986C12.5131 10.3393 13.0504 8.97865 14.1251 7.90398C15.2171 6.82931 16.5864 6.29198 18.2331 6.29198C19.8798 6.29198 21.2404 6.82931 22.3151 7.90398C23.4071 8.97865 23.9531 10.3393 23.9531 11.986C23.9531 13.6153 23.4071 14.9673 22.3151 16.042ZM20.9111 9.02198C20.1831 8.31131 19.2904 7.95598 18.2331 7.95598C17.1758 7.95598 16.2744 8.31998 15.5291 9.04798C14.8011 9.75865 14.4371 10.738 14.4371 11.986C14.4371 13.234 14.8098 14.2133 15.5551 14.924C16.3004 15.6346 17.1931 15.99 18.2331 15.99C19.2731 15.99 20.1658 15.6346 20.9111 14.924C21.6564 14.2133 22.0291 13.234 22.0291 11.986C22.0291 10.7206 21.6564 9.73265 20.9111 9.02198ZM28.0979 9.30798L26.7979 8.24198C27.2139 7.63531 27.6732 7.18465 28.1759 6.88998C28.8519 6.49131 29.6405 6.29198 30.5419 6.29198C31.6339 6.29198 32.4832 6.54331 33.0899 7.04598C33.7139 7.58331 34.0259 8.26798 34.0259 9.09998C34.0259 10.1053 33.6185 10.8593 32.8039 11.362C33.3239 11.4833 33.7399 11.7173 34.0519 12.064C34.5545 12.6013 34.8059 13.26 34.8059 14.04C34.8059 15.2013 34.3379 16.1286 33.4019 16.822C32.6392 17.3766 31.6165 17.654 30.3339 17.654C29.1899 17.654 28.2279 17.3506 27.4479 16.744C26.8585 16.3106 26.3819 15.6953 26.0179 14.898L27.6299 14.222C27.8205 14.7073 28.1412 15.1146 28.5919 15.444C29.0772 15.808 29.6665 15.99 30.3599 15.99C31.1745 15.99 31.7812 15.8513 32.1799 15.574C32.6825 15.2446 32.9339 14.742 32.9339 14.066C32.9339 13.5113 32.7172 13.0953 32.2839 12.818C31.9199 12.5753 31.3305 12.454 30.5159 12.454H29.4239V10.738H30.3339C30.9925 10.738 31.4605 10.6426 31.7379 10.452C32.1192 10.2093 32.3099 9.87998 32.3099 9.46398C32.3099 8.97865 32.1539 8.60598 31.8419 8.34598C31.5472 8.08598 31.0879 7.95598 30.4639 7.95598C29.9265 7.95598 29.4325 8.09465 28.9819 8.37198C28.6005 8.61465 28.3059 8.92665 28.0979 9.30798ZM39.4046 15.834V23.322H37.5326V6.55198H39.4046V8.05998C40.358 6.88131 41.5886 6.29198 43.0966 6.29198C44.7086 6.29198 45.9826 6.86398 46.9186 8.00798C47.872 9.13465 48.3486 10.4693 48.3486 12.012C48.3486 13.572 47.8806 14.9066 46.9446 16.016C46.0086 17.108 44.752 17.654 43.1746 17.654C41.5973 17.654 40.3406 17.0473 39.4046 15.834ZM42.9146 15.99C43.972 15.99 44.8213 15.6086 45.4626 14.846C46.104 14.066 46.4246 13.1213 46.4246 12.012C46.4246 10.764 46.0693 9.77598 45.3586 9.04798C44.648 8.31998 43.8246 7.95598 42.8886 7.95598C41.9526 7.95598 41.1206 8.31998 40.3926 9.04798C39.6646 9.77598 39.3006 10.7553 39.3006 11.986C39.3006 13.1126 39.63 14.066 40.2886 14.846C40.9646 15.6086 41.84 15.99 42.9146 15.99ZM59.3562 8.08598V6.55198H61.2282V17.342H59.3562V15.834C58.4202 17.0473 57.1895 17.654 55.6642 17.654C54.2082 17.654 52.9688 17.1513 51.9462 16.146C50.9235 15.1406 50.4122 13.7366 50.4122 11.934C50.4122 10.166 50.9148 8.78798 51.9202 7.79998C52.9428 6.79465 54.1908 6.29198 55.6642 6.29198C57.2242 6.29198 58.4548 6.88998 59.3562 8.08598ZM55.8722 7.95598C54.8842 7.95598 54.0435 8.31131 53.3502 9.02198C52.6742 9.71531 52.3362 10.686 52.3362 11.934C52.3362 13.13 52.6482 14.1093 53.2722 14.872C53.9135 15.6173 54.7802 15.99 55.8722 15.99C56.9642 15.99 57.8308 15.6 58.4722 14.82C59.1308 14.04 59.4602 13.0866 59.4602 11.96C59.4602 10.6773 59.0962 9.68931 58.3682 8.99598C57.6402 8.30265 56.8082 7.95598 55.8722 7.95598ZM73.0937 7.33198V9.56798C72.2444 8.49331 71.1177 7.95598 69.7137 7.95598C68.6564 7.95598 67.7551 8.31998 67.0097 9.04798C66.2644 9.75865 65.8917 10.738 65.8917 11.986C65.8917 13.234 66.2644 14.2133 67.0097 14.924C67.7551 15.6346 68.6477 15.99 69.6877 15.99C71.0744 15.99 72.2357 15.4266 73.1717 14.3V16.536C72.1491 17.2813 71.0051 17.654 69.7397 17.654C68.0584 17.654 66.6717 17.1253 65.5797 16.068C64.5051 14.9933 63.9677 13.6413 63.9677 12.012C63.9677 10.3653 64.5137 9.00465 65.6057 7.92998C66.6977 6.83798 68.0757 6.29198 69.7397 6.29198C70.9877 6.29198 72.1057 6.63865 73.0937 7.33198ZM82.9861 8.26798H79.6061V17.342H77.7341V8.26798H74.3541V6.55198H82.9861V8.26798ZM84.8232 17.342V6.55198H86.6952V10.972H91.7912V6.55198H93.6632V17.342H91.7912V12.688H86.6952V17.342H84.8232ZM105.326 8.08598V6.55198H107.198V17.342H105.326V15.834C104.39 17.0473 103.16 17.654 101.634 17.654C100.178 17.654 98.9391 17.1513 97.9164 16.146C96.8937 15.1406 96.3824 13.7366 96.3824 11.934C96.3824 10.166 96.8851 8.78798 97.8904 7.79998C98.9131 6.79465 100.161 6.29198 101.634 6.29198C103.194 6.29198 104.425 6.88998 105.326 8.08598ZM101.842 7.95598C100.854 7.95598 100.014 8.31131 99.3204 9.02198C98.6444 9.71531 98.3064 10.686 98.3064 11.934C98.3064 13.13 98.6184 14.1093 99.2424 14.872C99.8837 15.6173 100.75 15.99 101.842 15.99C102.934 15.99 103.801 15.6 104.442 14.82C105.101 14.04 105.43 13.0866 105.43 11.96C105.43 10.6773 105.066 9.68931 104.338 8.99598C103.61 8.30265 102.778 7.95598 101.842 7.95598ZM109.366 17.342L112.72 12.896C112.616 12.896 112.469 12.8786 112.278 12.844C112.105 12.8093 111.845 12.7226 111.498 12.584C111.151 12.4453 110.865 12.2633 110.64 12.038C110.068 11.5006 109.782 10.7813 109.782 9.87998C109.782 8.85731 110.103 8.05131 110.744 7.46198C111.385 6.85531 112.443 6.55198 113.916 6.55198H117.686V17.342H115.814V13H114.67L111.602 17.342H109.366ZM115.814 11.44V8.21598H114.072C113.257 8.21598 112.694 8.31131 112.382 8.50198C111.931 8.79665 111.706 9.23865 111.706 9.82798C111.706 10.4173 111.931 10.8506 112.382 11.128C112.711 11.336 113.266 11.44 114.046 11.44H115.814ZM127.036 6.55198H128.908V10.972L133.276 6.55198H135.564L130.884 11.362L136.136 17.342H133.692L129.48 12.61L128.908 13.156V17.342H127.036V6.55198ZM146.142 8.08598V6.55198H148.014V17.342H146.142V15.834C145.206 17.0473 143.976 17.654 142.45 17.654C140.994 17.654 139.755 17.1513 138.732 16.146C137.71 15.1406 137.198 13.7366 137.198 11.934C137.198 10.166 137.701 8.78798 138.706 7.79998C139.729 6.79465 140.977 6.29198 142.45 6.29198C144.01 6.29198 145.241 6.88998 146.142 8.08598ZM142.658 7.95598C141.67 7.95598 140.83 8.31131 140.136 9.02198C139.46 9.71531 139.122 10.686 139.122 11.934C139.122 13.13 139.434 14.1093 140.058 14.872C140.7 15.6173 141.566 15.99 142.658 15.99C143.75 15.99 144.617 15.6 145.258 14.82C145.917 14.04 146.246 13.0866 146.246 11.96C146.246 10.6773 145.882 9.68931 145.154 8.99598C144.426 8.30265 143.594 7.95598 142.658 7.95598ZM158.502 8.26798H155.122V17.342H153.25V8.26798H149.87V6.55198H158.502V8.26798ZM168.093 13.728L169.653 14.586C169.289 15.2793 168.847 15.86 168.327 16.328C167.339 17.212 166.143 17.654 164.739 17.654C163.283 17.654 162.026 17.186 160.969 16.25C159.929 15.2966 159.409 13.884 159.409 12.012C159.409 10.3653 159.877 9.00465 160.813 7.92998C161.766 6.83798 163.04 6.29198 164.635 6.29198C166.438 6.29198 167.798 6.95065 168.717 8.26798C169.445 9.30798 169.783 10.66 169.731 12.324H161.333C161.35 13.416 161.688 14.3 162.347 14.976C163.006 15.652 163.812 15.99 164.765 15.99C165.614 15.99 166.351 15.73 166.975 15.21C167.46 14.794 167.833 14.3 168.093 13.728ZM161.463 10.764H167.807C167.651 9.91465 167.278 9.23865 166.689 8.73598C166.117 8.21598 165.432 7.95598 164.635 7.95598C163.855 7.95598 163.162 8.22465 162.555 8.76198C161.966 9.28198 161.602 9.94931 161.463 10.764ZM172.473 17.342V6.55198H178.869V8.26798H174.345V17.342H172.473ZM189.187 16.042C188.113 17.1166 186.752 17.654 185.105 17.654C183.459 17.654 182.089 17.1166 180.997 16.042C179.923 14.9673 179.385 13.6153 179.385 11.986C179.385 10.3393 179.923 8.97865 180.997 7.90398C182.089 6.82931 183.459 6.29198 185.105 6.29198C186.752 6.29198 188.113 6.82931 189.187 7.90398C190.279 8.97865 190.825 10.3393 190.825 11.986C190.825 13.6153 190.279 14.9673 189.187 16.042ZM187.783 9.02198C187.055 8.31131 186.163 7.95598 185.105 7.95598C184.048 7.95598 183.147 8.31998 182.401 9.04798C181.673 9.75865 181.309 10.738 181.309 11.986C181.309 13.234 181.682 14.2133 182.427 14.924C183.173 15.6346 184.065 15.99 185.105 15.99C186.145 15.99 187.038 15.6346 187.783 14.924C188.529 14.2133 188.901 13.234 188.901 11.986C188.901 10.7206 188.529 9.73265 187.783 9.02198ZM195.438 15.834V23.322H193.566V6.55198H195.438V8.05998C196.391 6.88131 197.622 6.29198 199.13 6.29198C200.742 6.29198 202.016 6.86398 202.952 8.00798C203.905 9.13465 204.382 10.4693 204.382 12.012C204.382 13.572 203.914 14.9066 202.978 16.016C202.042 17.108 200.785 17.654 199.208 17.654C197.631 17.654 196.374 17.0473 195.438 15.834ZM198.948 15.99C200.005 15.99 200.855 15.6086 201.496 14.846C202.137 14.066 202.458 13.1213 202.458 12.012C202.458 10.764 202.103 9.77598 201.392 9.04798C200.681 8.31998 199.858 7.95598 198.922 7.95598C197.986 7.95598 197.154 8.31998 196.426 9.04798C195.698 9.77598 195.334 10.7553 195.334 11.986C195.334 13.1126 195.663 14.066 196.322 14.846C196.998 15.6086 197.873 15.99 198.948 15.99ZM207.122 6.55198H208.994V13.676L216.378 5.71998V17.342H214.506V10.14L207.122 18.096V6.55198ZM218.541 17.342L221.895 12.896C221.791 12.896 221.643 12.8786 221.453 12.844C221.279 12.8093 221.019 12.7226 220.673 12.584C220.326 12.4453 220.04 12.2633 219.815 12.038C219.243 11.5006 218.957 10.7813 218.957 9.87998C218.957 8.85731 219.277 8.05131 219.919 7.46198C220.56 6.85531 221.617 6.55198 223.091 6.55198H226.861V17.342H224.989V13H223.845L220.777 17.342H218.541ZM224.989 11.44V8.21598H223.247C222.432 8.21598 221.869 8.31131 221.557 8.50198C221.106 8.79665 220.881 9.23865 220.881 9.82798C220.881 10.4173 221.106 10.8506 221.557 11.128C221.886 11.336 222.441 11.44 223.221 11.44H224.989ZM230.558 8.50198C230.298 8.24198 230.168 7.93865 230.168 7.59198C230.168 7.24531 230.298 6.94198 230.558 6.68198C230.818 6.42198 231.121 6.29198 231.468 6.29198C231.814 6.29198 232.118 6.42198 232.378 6.68198C232.638 6.94198 232.768 7.24531 232.768 7.59198C232.768 7.93865 232.638 8.24198 232.378 8.50198C232.118 8.76198 231.814 8.89198 231.468 8.89198C231.121 8.89198 230.818 8.76198 230.558 8.50198ZM230.558 17.264C230.298 17.004 230.168 16.7006 230.168 16.354C230.168 16.0073 230.298 15.704 230.558 15.444C230.818 15.184 231.121 15.054 231.468 15.054C231.814 15.054 232.118 15.184 232.378 15.444C232.638 15.704 232.768 16.0073 232.768 16.354C232.768 16.7006 232.638 17.004 232.378 17.264C232.118 17.524 231.814 17.654 231.468 17.654C231.121 17.654 230.818 17.524 230.558 17.264Z" fill="#898989"/>
</svg>

