<svg width="613" height="57" viewBox="0 0 613 57" fill="none" xmlns="http://www.w3.org/2000/svg">
<path d="M7.8 3.18V18.66H24.72V3.18H32.52V43.2H24.72V25.38H7.8V43.2H2.74181e-06V3.18H7.8ZM60.2002 20.58V17.22H67.5202V43.2H60.2002V39.84C58.2402 42.64 55.5802 44.04 52.2202 44.04C48.3002 44.04 45.1002 42.7 42.6202 40.02C40.1802 37.34 38.9602 34.06 38.9602 30.18C38.9602 26.26 40.1602 22.98 42.5602 20.34C44.9602 17.7 48.0602 16.38 51.8602 16.38C55.6202 16.38 58.4002 17.78 60.2002 20.58ZM58.8802 24.96C57.5202 23.56 55.8002 22.86 53.7202 22.86C51.6402 22.86 49.9202 23.56 48.5602 24.96C47.2002 26.36 46.5202 28.1 46.5202 30.18C46.5202 32.26 47.2002 34.02 48.5602 35.46C49.9202 36.86 51.6402 37.56 53.7202 37.56C55.8002 37.56 57.5202 36.86 58.8802 35.46C60.2402 34.02 60.9202 32.26 60.9202 30.18C60.9202 28.1 60.2402 26.36 58.8802 24.96ZM74.1989 17.22H98.7989V43.2H91.4789V23.46H81.5189V43.2H74.1989V17.22ZM112.801 39.84V56.94H105.481V17.22H112.801V20.58C114.761 17.78 117.581 16.38 121.261 16.38C124.861 16.38 127.821 17.54 130.141 19.86C132.741 22.46 134.041 25.9 134.041 30.18C134.041 34.58 132.681 38.08 129.961 40.68C127.561 42.92 124.621 44.04 121.141 44.04C117.661 44.04 114.881 42.64 112.801 39.84ZM119.281 22.86C117.401 22.86 115.821 23.44 114.541 24.6C112.901 26 112.081 27.86 112.081 30.18C112.081 32.54 112.881 34.42 114.481 35.82C115.801 36.98 117.401 37.56 119.281 37.56C121.241 37.56 122.881 36.94 124.201 35.7C125.721 34.3 126.481 32.46 126.481 30.18C126.481 27.94 125.741 26.12 124.261 24.72C122.901 23.48 121.241 22.86 119.281 22.86ZM159.32 20.58V17.22H166.64V43.2H159.32V39.84C157.36 42.64 154.7 44.04 151.34 44.04C147.42 44.04 144.22 42.7 141.74 40.02C139.3 37.34 138.08 34.06 138.08 30.18C138.08 26.26 139.28 22.98 141.68 20.34C144.08 17.7 147.18 16.38 150.98 16.38C154.74 16.38 157.52 17.78 159.32 20.58ZM158 24.96C156.64 23.56 154.92 22.86 152.84 22.86C150.76 22.86 149.04 23.56 147.68 24.96C146.32 26.36 145.64 28.1 145.64 30.18C145.64 32.26 146.32 34.02 147.68 35.46C149.04 36.86 150.76 37.56 152.84 37.56C154.92 37.56 156.64 36.86 158 35.46C159.36 34.02 160.04 32.26 160.04 30.18C160.04 28.1 159.36 26.36 158 24.96ZM173.318 17.22H184.778C187.538 17.22 189.598 17.74 190.958 18.78C192.638 20.06 193.478 21.76 193.478 23.88C193.478 25 193.158 26.06 192.518 27.06C191.918 28.02 191.038 28.74 189.878 29.22C191.158 29.46 192.298 30.02 193.298 30.9C194.618 32.1 195.278 33.72 195.278 35.76C195.278 38.2 194.358 40.12 192.518 41.52C190.998 42.64 189.058 43.2 186.698 43.2H173.318V17.22ZM180.638 27.54H183.998C184.758 27.54 185.398 27.38 185.918 27.06C186.558 26.66 186.878 26.06 186.878 25.26C186.878 24.42 186.598 23.8 186.038 23.4C185.638 23.12 184.918 22.98 183.878 22.98H180.638V27.54ZM180.638 37.44H184.058C185.298 37.44 186.198 37.22 186.758 36.78C187.398 36.3 187.718 35.6 187.718 34.68C187.718 33.84 187.398 33.22 186.758 32.82C186.198 32.42 185.358 32.22 184.238 32.22H180.638V37.44ZM223.422 17.22V43.2H216.102V23.46H209.022V33C209.022 36.36 208.202 38.92 206.562 40.68C204.922 42.52 202.582 43.44 199.542 43.44C198.742 43.44 198.022 43.36 197.382 43.2V36.96C197.862 37.04 198.242 37.08 198.522 37.08C199.842 37.08 200.842 36.66 201.522 35.82C202.122 35.1 202.422 34 202.422 32.52V17.22H223.422ZM248.862 34.86L255.582 35.94C255.302 36.66 254.922 37.38 254.442 38.1C254.002 38.78 253.302 39.64 252.342 40.68C251.382 41.68 250.082 42.5 248.442 43.14C246.802 43.74 244.922 44.04 242.802 44.04C238.722 44.04 235.402 42.82 232.842 40.38C230.122 37.82 228.762 34.44 228.762 30.24C228.762 26.08 230.082 22.68 232.722 20.04C235.202 17.6 238.462 16.38 242.502 16.38C246.902 16.38 250.282 17.8 252.642 20.64C254.722 23.12 255.762 26.52 255.762 30.84V31.44H236.322C236.322 33.2 236.742 34.66 237.582 35.82C238.782 37.46 240.522 38.28 242.802 38.28C245.522 38.28 247.542 37.14 248.862 34.86ZM236.562 26.76H248.862C248.582 25.08 247.842 23.8 246.642 22.92C245.482 22 244.162 21.54 242.682 21.54C241.242 21.54 239.922 22 238.722 22.92C237.562 23.84 236.842 25.12 236.562 26.76ZM261.129 43.2V17.22H268.449V26.4H278.649V17.22H285.969V43.2H278.649V32.64H268.449V43.2H261.129ZM292.646 17.22H299.966V33.24L311.966 17.22H319.286V43.2H311.966V27.18L299.966 43.2H292.646V17.22ZM323.64 43.2L331.32 33.48C329.64 33.24 328.24 32.56 327.12 31.44C325.76 30.08 325.08 28.24 325.08 25.92C325.08 23.24 326.12 21.06 328.2 19.38C330.04 17.94 332.72 17.22 336.24 17.22H346.56V43.2H339.24V34.08H338.4L332.04 43.2H323.64ZM339.24 28.8V22.98H336.06C334.94 22.98 334.12 23.22 333.6 23.7C332.96 24.3 332.64 25.06 332.64 25.98C332.64 26.94 332.96 27.66 333.6 28.14C334.16 28.58 334.98 28.8 336.06 28.8H339.24ZM369.982 20.04C372.622 17.6 376.122 16.38 380.482 16.38C384.842 16.38 388.342 17.6 390.982 20.04C393.902 22.68 395.362 26.08 395.362 30.24C395.362 34.36 393.902 37.74 390.982 40.38C388.342 42.82 384.842 44.04 380.482 44.04C376.122 44.04 372.622 42.82 369.982 40.38C367.062 37.74 365.602 34.36 365.602 30.24C365.602 26.08 367.062 22.68 369.982 20.04ZM375.262 35.4C376.662 36.84 378.402 37.56 380.482 37.56C382.562 37.56 384.302 36.84 385.702 35.4C387.102 33.96 387.802 32.24 387.802 30.24C387.802 28.2 387.102 26.46 385.702 25.02C384.302 23.58 382.562 22.86 380.482 22.86C378.402 22.86 376.662 23.58 375.262 25.02C373.862 26.46 373.162 28.2 373.162 30.24C373.162 32.24 373.862 33.96 375.262 35.4ZM421.483 2.86102e-06H428.203C427.403 4.8 424.563 7.92 419.683 9.36L416.983 10.14C416.783 10.18 416.203 10.34 415.243 10.62C414.323 10.86 413.623 11.06 413.143 11.22C412.703 11.38 412.123 11.64 411.403 12C410.683 12.36 410.083 12.78 409.603 13.26C407.843 14.9 406.863 17.12 406.663 19.92H406.783C407.703 18.72 409.003 17.84 410.683 17.28C412.363 16.68 414.103 16.38 415.903 16.38C419.903 16.38 423.143 17.6 425.623 20.04C428.303 22.6 429.643 25.96 429.643 30.12C429.643 34.28 428.183 37.7 425.263 40.38C422.583 42.82 419.143 44.04 414.943 44.04C410.543 44.04 407.083 42.9 404.563 40.62C401.443 37.82 399.883 33.44 399.883 27.48C399.883 19.44 401.203 13.6 403.843 9.96C404.883 8.52 406.183 7.34 407.743 6.42C409.303 5.46 410.583 4.84 411.583 4.56C412.583 4.24 413.903 3.92 415.543 3.6C417.463 3.2 418.843 2.74 419.683 2.22C420.563 1.66 421.163 0.920003 421.483 2.86102e-06ZM409.483 35.46C410.883 36.86 412.643 37.56 414.763 37.56C416.883 37.56 418.623 36.86 419.983 35.46C421.383 34.06 422.083 32.32 422.083 30.24C422.083 28.12 421.403 26.36 420.043 24.96C418.683 23.56 416.923 22.86 414.763 22.86C412.603 22.86 410.843 23.56 409.483 24.96C408.123 26.36 407.443 28.12 407.443 30.24C407.443 32.32 408.123 34.06 409.483 35.46ZM434.453 56.94L443.993 39.3L431.633 17.22H440.153L448.193 31.98L455.393 17.22H463.673L442.733 56.94H434.453ZM481.739 43.2V34.32C479.659 34.72 477.619 34.92 475.619 34.92C472.459 34.92 470.039 34.12 468.359 32.52C466.799 31.04 466.019 29 466.019 26.4V17.22H473.339V24.9C473.339 26.22 473.639 27.16 474.239 27.72C474.919 28.36 476.159 28.68 477.959 28.68C479.159 28.68 480.419 28.56 481.739 28.32V17.22H489.059V43.2H481.739ZM514.521 34.86L521.241 35.94C520.961 36.66 520.581 37.38 520.101 38.1C519.661 38.78 518.961 39.64 518.001 40.68C517.041 41.68 515.741 42.5 514.101 43.14C512.461 43.74 510.581 44.04 508.461 44.04C504.381 44.04 501.061 42.82 498.501 40.38C495.781 37.82 494.421 34.44 494.421 30.24C494.421 26.08 495.741 22.68 498.381 20.04C500.861 17.6 504.121 16.38 508.161 16.38C512.561 16.38 515.941 17.8 518.301 20.64C520.381 23.12 521.421 26.52 521.421 30.84V31.44H501.981C501.981 33.2 502.401 34.66 503.241 35.82C504.441 37.46 506.181 38.28 508.461 38.28C511.181 38.28 513.201 37.14 514.521 34.86ZM502.221 26.76H514.521C514.241 25.08 513.501 23.8 512.301 22.92C511.141 22 509.821 21.54 508.341 21.54C506.901 21.54 505.581 22 504.381 22.92C503.221 23.84 502.501 25.12 502.221 26.76ZM526.789 43.2V17.22H534.109V26.4H544.309V17.22H551.629V43.2H544.309V32.64H534.109V43.2H526.789ZM558.305 17.22H565.625V33.24L577.625 17.22H584.945V43.2H577.625V27.18L565.625 43.2H558.305V17.22ZM589.299 43.2L596.979 33.48C595.299 33.24 593.899 32.56 592.779 31.44C591.419 30.08 590.739 28.24 590.739 25.92C590.739 23.24 591.779 21.06 593.859 19.38C595.699 17.94 598.379 17.22 601.899 17.22H612.219V43.2H604.899V34.08H604.059L597.699 43.2H589.299ZM604.899 28.8V22.98H601.719C600.599 22.98 599.779 23.22 599.259 23.7C598.619 24.3 598.299 25.06 598.299 25.98C598.299 26.94 598.619 27.66 599.259 28.14C599.819 28.58 600.639 28.8 601.719 28.8H604.899Z" fill="#3D61AC"/>
</svg>
