<svg width="193" height="45" viewBox="0 0 193 45" fill="none" xmlns="http://www.w3.org/2000/svg">
<path d="M6.24 43.355V7.27998H-1.87755e-06V-2.31266e-05H14.69V43.355H6.24ZM31.2884 32.045V24.765H48.1884V32.045H31.2884ZM81.8162 -2.31266e-05V7.27998H67.3862L65.8262 14.105C66.9529 13.9316 67.9279 13.845 68.7512 13.845C73.3879 13.845 77.1145 15.2966 79.9312 18.2C82.4879 20.8 83.7662 24.2666 83.7662 28.6C83.7662 33.1933 82.2929 36.9633 79.3462 39.91C76.3995 42.8566 72.4345 44.33 67.4512 44.33C63.6812 44.33 60.5612 43.7233 58.0912 42.51C56.2279 41.6 54.4729 40.365 52.8262 38.805L55.6212 31.525C56.8779 33.215 58.3729 34.515 60.1062 35.425C62.0995 36.5083 64.2012 37.05 66.4112 37.05C69.1845 37.05 71.3945 36.1833 73.0412 34.45C74.5579 32.8466 75.3162 30.745 75.3162 28.145C75.3162 25.675 74.4712 23.6816 72.7812 22.165C71.0912 20.6916 68.8379 19.955 66.0212 19.955C62.9012 19.955 59.7812 20.8866 56.6612 22.75L61.7962 -2.31266e-05H81.8162ZM131.33 15.21V43.355H123.4V21.97H115.73V32.305C115.73 35.945 114.842 38.7183 113.065 40.625C111.289 42.6183 108.754 43.615 105.46 43.615C104.594 43.615 103.814 43.5283 103.12 43.355V36.595C103.64 36.6816 104.052 36.725 104.355 36.725C105.785 36.725 106.869 36.27 107.605 35.36C108.255 34.58 108.58 33.3883 108.58 31.785V15.21H131.33ZM158.89 34.32L166.17 35.49C165.867 36.27 165.455 37.05 164.935 37.83C164.459 38.5666 163.7 39.4983 162.66 40.625C161.62 41.7083 160.212 42.5966 158.435 43.29C156.659 43.94 154.622 44.265 152.325 44.265C147.905 44.265 144.309 42.9433 141.535 40.3C138.589 37.5266 137.115 33.865 137.115 29.315C137.115 24.8083 138.545 21.125 141.405 18.265C144.092 15.6216 147.624 14.3 152 14.3C156.767 14.3 160.429 15.8383 162.985 18.915C165.239 21.6016 166.365 25.285 166.365 29.965V30.615H145.305C145.305 32.5216 145.76 34.1033 146.67 35.36C147.97 37.1366 149.855 38.025 152.325 38.025C155.272 38.025 157.46 36.79 158.89 34.32ZM145.565 25.545H158.89C158.587 23.725 157.785 22.3383 156.485 21.385C155.229 20.3883 153.799 19.89 152.195 19.89C150.635 19.89 149.205 20.3883 147.905 21.385C146.649 22.3816 145.869 23.7683 145.565 25.545ZM192.33 21.97H184.53V43.355H176.6V21.97H168.8V15.21H192.33V21.97Z" fill="#FF8F8F"/>
</svg>
