<svg width="319" height="347" viewBox="0 0 319 347" fill="none" xmlns="http://www.w3.org/2000/svg">
<path d="M93.6285 3.77517C93.6937 4.01819 93.7589 4.26122 93.8241 4.50425C111.127 0.155098 129.35 0.122997 147.021 3.03383C158.728 4.93101 170.247 7.99005 181.598 11.5661C226.632 26.2033 287.723 22.9296 309.31 72.0166C313.631 82.045 315.856 92.8562 316.168 103.702C316.672 147.711 293.089 186.673 272.885 224.427C249.193 267.863 217.341 310.952 169.737 328.33C122.138 345.413 59.1808 358.104 20.455 316.58C-17.2716 270.227 13.5294 209.455 11.2656 155.17C10.8429 120.973 -1.41302 84.5297 15.3235 53.3631C22.0153 41.0309 32.318 30.9743 44.223 23.6691C59.3577 14.3307 76.5763 8.91125 93.8241 4.50425C93.7589 4.26122 93.6937 4.01819 93.6285 3.77517C76.3378 8.13711 59.0304 13.5162 43.7366 22.8886C31.7087 30.2189 21.236 40.3721 14.4215 52.8507C-2.65223 84.5424 9.68404 121.235 9.97699 155.171C12.2703 209.088 -19.2457 269.769 19.2707 317.671C58.9049 360.157 122.603 347.127 170.392 330.072C218.712 312.473 250.803 268.974 274.612 225.397C294.803 187.644 318.634 148.584 318.163 103.678C317.845 92.6093 315.561 81.5252 311.123 71.2591C288.468 20.5848 226.623 24.5596 182.001 10.186C170.586 6.66693 158.984 3.66845 147.186 1.84593C129.377 -0.95393 110.995 -0.765676 93.6285 3.77517ZM93.8241 4.50425L93.6285 3.77517L93.8241 4.50425L93.8241 4.50425Z" fill="#FF8F8F"/>
</svg>
