<svg width="254" height="46" viewBox="0 0 254 46" fill="none" xmlns="http://www.w3.org/2000/svg">
<path d="M6.24 44.33V8.25502H-1.87755e-06V0.975013H14.69V44.33H6.24ZM53.758 39.325C50.508 43.3117 46.5647 45.305 41.928 45.305C37.2914 45.305 33.3264 43.3117 30.033 39.325C26.783 35.295 25.158 29.7267 25.158 22.62C25.158 15.5567 26.783 10.0317 30.033 6.04501C33.3264 2.01501 37.2914 1.44243e-05 41.928 1.44243e-05C46.5647 1.44243e-05 50.508 2.01501 53.758 6.04501C57.0514 10.0317 58.698 15.5783 58.698 22.685C58.698 29.7484 57.0514 35.295 53.758 39.325ZM47.648 11.115C45.958 8.55835 44.0514 7.28001 41.928 7.28001C39.8047 7.28001 37.8764 8.55835 36.143 11.115C34.453 13.6283 33.608 17.4633 33.608 22.62C33.608 27.7767 34.453 31.6334 36.143 34.19C37.833 36.7467 39.7614 38.025 41.928 38.025C44.0947 38.025 46.023 36.7467 47.713 34.19C49.403 31.6334 50.248 27.7767 50.248 22.62C50.248 17.4633 49.3814 13.6283 47.648 11.115ZM63.3364 33.02V25.74H80.2364V33.02H63.3364ZM98.0043 44.33V8.25502H91.7643V0.975013H106.454V44.33H98.0043ZM115.497 42.445L135.452 8.25502H115.302V0.975013H148.712L122.647 45.63L115.497 42.445ZM192.507 16.185V44.33H184.577V22.945H176.907V33.28C176.907 36.92 176.018 39.6934 174.242 41.6C172.465 43.5934 169.93 44.59 166.637 44.59C165.77 44.59 164.99 44.5034 164.297 44.33V37.57C164.817 37.6567 165.228 37.7 165.532 37.7C166.962 37.7 168.045 37.245 168.782 36.335C169.432 35.555 169.757 34.3634 169.757 32.76V16.185H192.507ZM220.067 35.295L227.347 36.465C227.043 37.245 226.632 38.025 226.112 38.805C225.635 39.5417 224.877 40.4734 223.837 41.6C222.797 42.6834 221.388 43.5717 219.612 44.265C217.835 44.915 215.798 45.24 213.502 45.24C209.082 45.24 205.485 43.9184 202.712 41.275C199.765 38.5017 198.292 34.84 198.292 30.29C198.292 25.7833 199.722 22.1 202.582 19.24C205.268 16.5967 208.8 15.275 213.177 15.275C217.943 15.275 221.605 16.8133 224.162 19.89C226.415 22.5767 227.542 26.26 227.542 30.94V31.59H206.482C206.482 33.4967 206.937 35.0783 207.847 36.335C209.147 38.1117 211.032 39 213.502 39C216.448 39 218.637 37.765 220.067 35.295ZM206.742 26.52H220.067C219.763 24.7 218.962 23.3133 217.662 22.36C216.405 21.3633 214.975 20.865 213.372 20.865C211.812 20.865 210.382 21.3633 209.082 22.36C207.825 23.3567 207.045 24.7433 206.742 26.52ZM253.507 22.945H245.707V44.33H237.777V22.945H229.977V16.185H253.507V22.945Z" fill="#A2CC50"/>
</svg>
