<svg width="232" height="46" viewBox="0 0 232 46" fill="none" xmlns="http://www.w3.org/2000/svg">
<path d="M28.99 0.975013V8.25502H14.56L13 15.08C14.1267 14.9067 15.1017 14.82 15.925 14.82C20.5617 14.82 24.2883 16.2717 27.105 19.175C29.6617 21.775 30.94 25.2417 30.94 29.575C30.94 34.1683 29.4667 37.9384 26.52 40.885C23.5733 43.8317 19.6083 45.305 14.625 45.305C10.855 45.305 7.73501 44.6984 5.26501 43.485C3.40168 42.575 1.64668 41.34 1.28523e-05 39.78L2.79501 32.5C4.05168 34.19 5.54668 35.49 7.28001 36.4C9.27335 37.4834 11.375 38.025 13.585 38.025C16.3583 38.025 18.5683 37.1584 20.215 35.425C21.7317 33.8217 22.49 31.72 22.49 29.12C22.49 26.65 21.645 24.6567 19.955 23.14C18.265 21.6667 16.0117 20.93 13.195 20.93C10.075 20.93 6.95501 21.8617 3.83501 23.725L8.97001 0.975013H28.99ZM38.1784 33.02V25.74H55.0784V33.02H38.1784ZM72.8462 44.33V8.25502H66.6062V0.975013H81.2962V44.33H72.8462ZM120.364 39.325C117.114 43.3117 113.171 45.305 108.534 45.305C103.898 45.305 99.9326 43.3117 96.6393 39.325C93.3893 35.295 91.7643 29.7267 91.7643 22.62C91.7643 15.5567 93.3893 10.0317 96.6393 6.04501C99.9326 2.01501 103.898 1.44243e-05 108.534 1.44243e-05C113.171 1.44243e-05 117.114 2.01501 120.364 6.04501C123.658 10.0317 125.304 15.5783 125.304 22.685C125.304 29.7484 123.658 35.295 120.364 39.325ZM114.254 11.115C112.564 8.55835 110.658 7.28001 108.534 7.28001C106.411 7.28001 104.483 8.55835 102.749 11.115C101.059 13.6283 100.214 17.4633 100.214 22.62C100.214 27.7767 101.059 31.6334 102.749 34.19C104.439 36.7467 106.368 38.025 108.534 38.025C110.701 38.025 112.629 36.7467 114.319 34.19C116.009 31.6334 116.854 27.7767 116.854 22.62C116.854 17.4633 115.988 13.6283 114.254 11.115ZM170.269 16.185V44.33H162.339V22.945H154.669V33.28C154.669 36.92 153.78 39.6934 152.004 41.6C150.227 43.5934 147.692 44.59 144.399 44.59C143.532 44.59 142.752 44.5034 142.059 44.33V37.57C142.579 37.6567 142.99 37.7 143.294 37.7C144.724 37.7 145.807 37.245 146.544 36.335C147.194 35.555 147.519 34.3634 147.519 32.76V16.185H170.269ZM197.829 35.295L205.109 36.465C204.805 37.245 204.394 38.025 203.874 38.805C203.397 39.5417 202.639 40.4734 201.599 41.6C200.559 42.6834 199.15 43.5717 197.374 44.265C195.597 44.915 193.56 45.24 191.264 45.24C186.844 45.24 183.247 43.9184 180.474 41.275C177.527 38.5017 176.054 34.84 176.054 30.29C176.054 25.7833 177.484 22.1 180.344 19.24C183.03 16.5967 186.562 15.275 190.939 15.275C195.705 15.275 199.367 16.8133 201.924 19.89C204.177 22.5767 205.304 26.26 205.304 30.94V31.59H184.244C184.244 33.4967 184.699 35.0783 185.609 36.335C186.909 38.1117 188.794 39 191.264 39C194.21 39 196.399 37.765 197.829 35.295ZM184.504 26.52H197.829C197.525 24.7 196.724 23.3133 195.424 22.36C194.167 21.3633 192.737 20.865 191.134 20.865C189.574 20.865 188.144 21.3633 186.844 22.36C185.587 23.3567 184.807 24.7433 184.504 26.52ZM231.268 22.945H223.468V44.33H215.538V22.945H207.738V16.185H231.268V22.945Z" fill="#3D61AC"/>
</svg>
